name C:/MyDriveSym/Projects/mobilecap/Data\Session20210823_0002\mocap\ForceDataProcessed\walkingTS1_forces.mot
datacolumns 19
datarows 27
range 0.35450000 0.36750000
endheader 
time	R_ground_force_vx	R_ground_force_vy	R_ground_force_vz	R_ground_force_px	R_ground_force_py	R_ground_force_pz	R_ground_torque_x	R_ground_torque_y	R_ground_torque_z	L_ground_force_vx	L_ground_force_vy	L_ground_force_vz	L_ground_force_px	L_ground_force_py	L_ground_force_pz	L_ground_torque_x	L_ground_torque_y	L_ground_torque_z	
          0.35450000	        -14.76487600	        493.42471900	        -42.77303800	          0.30968500	          0.00600000	         -0.12570600	          0.00000000	         -1.86432700	          0.00000000	          0.00000000	          0.00000000	          0.00000000	          0.70862300	          0.00000000	         -0.31885000	          0.00000000	          0.00000000	          0.00000000	
          0.35500000	        -14.59934700	        492.96944200	        -42.73557100	          0.30993500	          0.00600000	         -0.12567200	          0.00000000	         -1.86995800	          0.00000000	          0.00000000	          0.00000000	          0.00000000	          0.70862300	          0.00000000	         -0.31885000	          0.00000000	          0.00000000	          0.00000000	
          0.35550000	        -14.43433900	        492.52172600	        -42.69888900	          0.31018400	          0.00600000	         -0.12563800	          0.00000000	         -1.87558100	          0.00000000	          0.00000000	          0.00000000	          0.00000000	          0.70862300	          0.00000000	         -0.31885000	          0.00000000	          0.00000000	          0.00000000	
          0.35600000	        -14.26984200	        492.08159600	        -42.66299000	          0.31043400	          0.00600000	         -0.12560500	          0.00000000	         -1.88119800	          0.00000000	          0.00000000	          0.00000000	          0.00000000	          0.70862300	          0.00000000	         -0.31885000	          0.00000000	          0.00000000	          0.00000000	
          0.35650000	        -14.10585100	        491.64907500	        -42.62787200	          0.31068300	          0.00600000	         -0.12557100	          0.00000000	         -1.88680800	          0.00000000	          0.00000000	          0.00000000	          0.00000000	          0.70862300	          0.00000000	         -0.31885000	          0.00000000	          0.00000000	          0.00000000	
          0.35700000	        -13.94235800	        491.22418800	        -42.59353500	          0.31093200	          0.00600000	         -0.12553700	          0.00000000	         -1.89241100	          0.00000000	          0.00000000	          0.00000000	          0.00000000	          0.70862300	          0.00000000	         -0.31885000	          0.00000000	          0.00000000	          0.00000000	
          0.35750000	        -13.77935600	        490.80695700	        -42.55997700	          0.31118000	          0.00600000	         -0.12550400	          0.00000000	         -1.89800700	          0.00000000	          0.00000000	          0.00000000	          0.00000000	          0.70862300	          0.00000000	         -0.31885000	          0.00000000	          0.00000000	          0.00000000	
          0.35800000	        -13.61683700	        490.39740500	        -42.52719700	          0.31142900	          0.00600000	         -0.12547000	          0.00000000	         -1.90359500	          0.00000000	          0.00000000	          0.00000000	          0.00000000	          0.70862300	          0.00000000	         -0.31885000	          0.00000000	          0.00000000	          0.00000000	
          0.35850000	        -13.45479300	        489.99555300	        -42.49519400	          0.31167600	          0.00600000	         -0.12543600	          0.00000000	         -1.90917700	          0.00000000	          0.00000000	          0.00000000	          0.00000000	          0.70862300	          0.00000000	         -0.31885000	          0.00000000	          0.00000000	          0.00000000	
          0.35900000	        -13.29321900	        489.60142100	        -42.46396600	          0.31192400	          0.00600000	         -0.12540300	          0.00000000	         -1.91475100	          0.00000000	          0.00000000	          0.00000000	          0.00000000	          0.70862300	          0.00000000	         -0.31885000	          0.00000000	          0.00000000	          0.00000000	
          0.35950000	        -13.13210500	        489.21503100	        -42.43351200	          0.31217100	          0.00600000	         -0.12537000	          0.00000000	         -1.92031700	          0.00000000	          0.00000000	          0.00000000	          0.00000000	          0.70862300	          0.00000000	         -0.31885000	          0.00000000	          0.00000000	          0.00000000	
          0.36000000	        -12.97144400	        488.83640300	        -42.40383100	          0.31241800	          0.00600000	         -0.12533600	          0.00000000	         -1.92587600	          0.00000000	          0.00000000	          0.00000000	          0.00000000	          0.70862300	          0.00000000	         -0.31885000	          0.00000000	          0.00000000	          0.00000000	
          0.36050000	        -12.81122800	        488.46555400	        -42.37492100	          0.31266500	          0.00600000	         -0.12530300	          0.00000000	         -1.93142700	          0.00000000	          0.00000000	          0.00000000	          0.00000000	          0.70862300	          0.00000000	         -0.31885000	          0.00000000	          0.00000000	          0.00000000	
          0.36100000	        -12.65145100	        488.10250300	        -42.34678000	          0.31291100	          0.00600000	         -0.12527000	          0.00000000	         -1.93697100	          0.00000000	          0.00000000	          0.00000000	          0.00000000	          0.70862300	          0.00000000	         -0.31885000	          0.00000000	          0.00000000	          0.00000000	
          0.36150000	        -12.49210300	        487.74726800	        -42.31940800	          0.31315700	          0.00600000	         -0.12523600	          0.00000000	         -1.94250700	          0.00000000	          0.00000000	          0.00000000	          0.00000000	          0.70862300	          0.00000000	         -0.31885000	          0.00000000	          0.00000000	          0.00000000	
          0.36200000	        -12.33317700	        487.39986700	        -42.29280200	          0.31340200	          0.00600000	         -0.12520300	          0.00000000	         -1.94803500	          0.00000000	          0.00000000	          0.00000000	          0.00000000	          0.70862300	          0.00000000	         -0.31885000	          0.00000000	          0.00000000	          0.00000000	
          0.36250000	        -12.17466500	        487.06031500	        -42.26696200	          0.31364700	          0.00600000	         -0.12517000	          0.00000000	         -1.95355600	          0.00000000	          0.00000000	          0.00000000	          0.00000000	          0.70862300	          0.00000000	         -0.31885000	          0.00000000	          0.00000000	          0.00000000	
          0.36300000	        -12.01655900	        486.72862800	        -42.24188500	          0.31389100	          0.00600000	         -0.12513700	          0.00000000	         -1.95906800	          0.00000000	          0.00000000	          0.00000000	          0.00000000	          0.70862300	          0.00000000	         -0.31885000	          0.00000000	          0.00000000	          0.00000000	
          0.36350000	        -11.85885200	        486.40482100	        -42.21756900	          0.31413600	          0.00600000	         -0.12510400	          0.00000000	         -1.96457200	          0.00000000	          0.00000000	          0.00000000	          0.00000000	          0.70862300	          0.00000000	         -0.31885000	          0.00000000	          0.00000000	          0.00000000	
          0.36400000	        -11.70153400	        486.08890900	        -42.19401500	          0.31437900	          0.00600000	         -0.12507200	          0.00000000	         -1.97006900	          0.00000000	          0.00000000	          0.00000000	          0.00000000	          0.70862300	          0.00000000	         -0.31885000	          0.00000000	          0.00000000	          0.00000000	
          0.36450000	        -11.54459800	        485.78090500	        -42.17121900	          0.31462200	          0.00600000	         -0.12503900	          0.00000000	         -1.97555700	          0.00000000	          0.00000000	          0.00000000	          0.00000000	          0.70862300	          0.00000000	         -0.31885000	          0.00000000	          0.00000000	          0.00000000	
          0.36500000	        -11.38803500	        485.48082300	        -42.14918000	          0.31486500	          0.00600000	         -0.12500600	          0.00000000	         -1.98103700	          0.00000000	          0.00000000	          0.00000000	          0.00000000	          0.70862300	          0.00000000	         -0.31885000	          0.00000000	          0.00000000	          0.00000000	
          0.36550000	        -11.23183800	        485.18867300	        -42.12789700	          0.31510700	          0.00600000	         -0.12497400	          0.00000000	         -1.98650900	          0.00000000	          0.00000000	          0.00000000	          0.00000000	          0.70862300	          0.00000000	         -0.31885000	          0.00000000	          0.00000000	          0.00000000	
          0.36600000	        -11.07599900	        484.90447000	        -42.10736900	          0.31534900	          0.00600000	         -0.12494100	          0.00000000	         -1.99197200	          0.00000000	          0.00000000	          0.00000000	          0.00000000	          0.70862300	          0.00000000	         -0.31885000	          0.00000000	          0.00000000	          0.00000000	
          0.36650000	        -10.92050800	        484.62822200	        -42.08759200	          0.31559000	          0.00600000	         -0.12490900	          0.00000000	         -1.99742700	          0.00000000	          0.00000000	          0.00000000	          0.00000000	          0.70862300	          0.00000000	         -0.31885000	          0.00000000	          0.00000000	          0.00000000	
          0.36700000	        -10.76535800	        484.35994000	        -42.06856700	          0.31583100	          0.00600000	         -0.12487600	          0.00000000	         -2.00287300	          0.00000000	          0.00000000	          0.00000000	          0.00000000	          0.70862300	          0.00000000	         -0.31885000	          0.00000000	          0.00000000	          0.00000000	
          0.36750000	        -10.61054000	        484.09963400	        -42.05029100	          0.31607100	          0.00600000	         -0.12484400	          0.00000000	         -2.00831100	          0.00000000	          0.00000000	          0.00000000	          0.00000000	          0.70862300	          0.00000000	         -0.31885000	          0.00000000	          0.00000000	          0.00000000	
